<svg width="16" height="16" viewBox="0 0 16 16" fill="none" xmlns="http://www.w3.org/2000/svg">
<g clip-path="url(#clip0_0_719)">
<path d="M5.6665 10C5.61671 10 5.56691 10.0073 5.51941 10.0227C5.24941 10.1104 4.96546 10.1667 4.6665 10.1667C4.36754 10.1667 4.08358 10.1104 3.81337 10.0227C3.76587 10.0073 3.71629 10 3.6665 10C2.37358 10 1.32629 11.0517 1.33316 12.3463C1.33608 12.8933 1.78587 13.3333 2.33316 13.3333H6.99983C7.54712 13.3333 7.99691 12.8933 7.99983 12.3463C8.00671 11.0517 6.95941 10 5.6665 10ZM4.6665 9.33334C5.77108 9.33334 6.6665 8.43792 6.6665 7.33334C6.6665 6.22876 5.77108 5.33334 4.6665 5.33334C3.56191 5.33334 2.6665 6.22876 2.6665 7.33334C2.6665 8.43792 3.56191 9.33334 4.6665 9.33334ZM13.6665 2.66667H5.6665C5.11504 2.66667 4.6665 3.13021 4.6665 3.6998V4.66667C5.15441 4.66667 5.60608 4.80792 5.99983 5.03751V4.00001H13.3332V10H11.9998V8.66667H9.33316V10H7.74483C8.14275 10.3477 8.43483 10.8069 8.57171 11.3333H13.6665C14.218 11.3333 14.6665 10.8698 14.6665 10.3002V3.6998C14.6665 3.13021 14.218 2.66667 13.6665 2.66667Z" fill="currentColor"/>
</g>
<defs>
<clipPath id="clip0_0_719">
<rect width="13.3333" height="10.6667" fill="white" transform="translate(1.33333 2.66667)"/>
</clipPath>
</defs>
</svg>
