<svg width="24" height="24" viewBox="0 0 24 24" fill="none" xmlns="http://www.w3.org/2000/svg">
<g clip-path="url(#clip0_40_450)">
<path d="M8.49982 15.75C10.0236 15.75 11.2579 16.9897 11.2498 18.5156C11.2475 18.9161 10.9154 19.25 10.4998 19.25H3.49982C3.08425 19.25 2.75209 18.9161 2.74982 18.5156C2.74171 16.99 3.97556 15.7506 5.49884 15.75C5.95858 15.8983 6.46008 16 6.99982 16C7.53922 16 8.04047 15.8983 8.49982 15.75ZM8.49982 4.75H20.4998C20.8899 4.75 21.2498 5.08635 21.2498 5.5498V15.4502C21.2498 15.9137 20.8899 16.25 20.4998 16.25H13.3963C13.3276 16.0779 13.2495 15.9111 13.1619 15.75H14.7498V13.75H17.2498V15.75H20.7498V5.25H8.24982V6.4248C8.08711 6.37851 7.92003 6.343 7.74982 6.31445V5.5498C7.74982 5.08637 8.10978 4.75003 8.49982 4.75ZM6.99982 8.75C8.24248 8.75 9.24982 9.75734 9.24982 11C9.24982 12.2427 8.24248 13.25 6.99982 13.25C5.75718 13.25 4.74982 12.2426 4.74982 11C4.74982 9.75736 5.75718 8.75003 6.99982 8.75Z" stroke="currentColor" stroke-width="1.5"/>
</g>
<defs>
<clipPath id="clip0_40_450">
<rect width="20" height="16" fill="white" transform="translate(2 4)"/>
</clipPath>
</defs>
</svg>
