<svg width="16" height="16" viewBox="0 0 16 16" fill="none" xmlns="http://www.w3.org/2000/svg">
<path d="M11.5379 4.99419C8.68204 3.25666 10.0213 0.80425 10.0788 0.702313C10.1622 0.55725 10.1619 0.378781 10.0781 0.233969C9.99429 0.0891563 9.83967 0 9.67235 0C8.20226 0 7.05107 0.417687 6.25079 1.24153C4.88332 2.64916 4.94676 4.84 4.97385 5.77553C4.97688 5.87919 4.97945 5.96872 4.97945 6.03525C4.97945 6.72988 5.09088 7.37112 5.18923 7.93694C5.2526 8.30156 5.30732 8.61644 5.31707 8.86394C5.32748 9.129 5.27907 9.18969 5.27704 9.19216C5.27013 9.20037 5.2126 9.23094 5.05717 9.23094C4.87985 9.23094 4.74917 9.173 4.63332 9.04316C4.18095 8.53588 4.14967 7.15084 4.23617 6.39731C4.25163 6.26444 4.2096 6.13131 4.12063 6.03144C4.0317 5.93156 3.90432 5.87444 3.7706 5.87444C2.55357 5.87444 1.64413 7.86469 1.64413 9.64419C1.64413 10.4807 1.81242 11.3002 2.14426 12.0798C2.46507 12.8335 2.92251 13.5137 3.50401 14.1016C4.71492 15.3258 6.31157 16 7.99979 16C9.69485 16 11.2911 15.3353 12.4945 14.1285C13.6948 12.9247 14.3559 11.3322 14.3559 9.64412C14.3559 7.49034 12.6707 5.68331 11.5379 4.99419Z" fill="currentColor"/>
</svg>
