<svg width="16" height="16" viewBox="0 0 16 16" fill="none" xmlns="http://www.w3.org/2000/svg">
<path d="M8.02015 7.90754C8.23812 7.90754 8.44688 7.95769 8.63927 8.04979C9.62987 7.07863 10.5662 5.96114 11.1066 4.86206C10.7842 4.47524 10.1508 4.03315 9.92357 3.85509C8.2637 5.86187 5.04528 8.89712 1.96909 11.3572C2.1492 12.004 2.47156 12.4706 3.03644 12.8401C3.03644 12.8401 4.22762 12.5106 5.04323 11.9774C5.45052 11.7103 5.92945 11.3675 6.40019 10.907C6.31832 10.6542 6.27227 10.3789 6.27227 10.0893C6.27227 8.88586 7.05615 7.90652 8.01912 7.90652L8.02015 7.90754Z" fill="currentColor"/>
<path d="M9.38601 3.34821C9.11278 3.21722 8.81805 3.15991 8.509 3.15991C7.4877 3.15991 6.32927 3.79029 5.39086 4.45649C4.33272 5.20661 1.85213 6.96574 1.43665 8.74227C1.30873 9.28669 1.38957 9.914 1.67099 10.6037C4.46883 8.18762 8.24191 4.77271 9.38601 3.34821Z" fill="currentColor"/>
<path d="M14.5633 8.74231C14.3341 7.76297 13.4755 6.79284 12.5781 5.98746C12.2782 5.71832 11.7225 5.36424 11.7225 5.36424C11.7225 5.36424 11.3961 5.94448 11.0829 6.38452C10.5907 7.07426 10.4587 7.2646 10.4587 7.2646C10.4587 7.2646 11.1024 7.77525 11.2262 7.88782C12.3202 8.87944 13.5175 9.90483 14.329 10.6058C14.6104 9.91507 14.6913 9.28878 14.5633 8.74436V8.74231Z" fill="currentColor"/>
<path d="M9.27341 8.60066C9.59372 8.97316 9.76667 9.53191 9.76667 10.0886C9.76667 10.3884 9.71755 10.675 9.62954 10.9359C10.09 11.3821 10.5577 11.7157 10.9558 11.9767C11.7714 12.5098 12.9626 12.8394 12.9626 12.8394C13.5275 12.4699 13.8498 12.0033 14.0299 11.3565C13.2379 10.7231 12.3015 9.90338 11.4143 9.12564C10.9476 8.71732 9.95906 7.85771 9.95906 7.85771C9.95906 7.85771 9.89254 7.958 9.70629 8.15448C9.58247 8.28547 9.43715 8.43181 9.27341 8.59964V8.60066Z" fill="currentColor"/>
<path d="M8.83174 9.29482C8.65266 8.92028 8.35281 8.66853 8.02023 8.66853C8.00692 8.66853 7.99464 8.66853 7.98236 8.66956C7.46557 8.69923 7.03577 9.33678 7.03577 10.0889C7.03577 10.1196 7.03577 10.1493 7.03781 10.18C7.07158 10.9097 7.50753 11.5104 8.02125 11.5104C8.53497 11.5104 8.9484 10.9414 9.00059 10.2373C9.00469 10.1892 9.00571 10.1401 9.00571 10.09C9.00571 9.79831 8.94124 9.52405 8.83174 9.29584V9.29482Z" fill="currentColor"/>
</svg>
