<svg width="110" height="24" viewBox="0 0 110 24" fill="none" xmlns="http://www.w3.org/2000/svg">
<path d="M10.273 11.8651C10.5484 11.8651 10.8111 11.9283 11.0542 12.045C12.3047 10.8197 13.4864 9.409 14.1679 8.02217C13.7604 7.5346 12.9623 6.97537 12.6757 6.75056C10.5807 9.28394 6.51857 13.1142 2.63629 16.2195C2.86392 17.0358 3.26999 17.6246 3.98378 18.0911C3.98378 18.0911 5.48723 17.6752 6.51716 17.0021C7.03143 16.6649 7.63562 16.2321 8.22997 15.6518C8.126 15.3329 8.06839 14.9844 8.06839 14.6205C8.06839 13.1016 9.05758 11.8665 10.273 11.8665V11.8651Z" fill="#374151"/>
<path d="M11.9971 6.11125C11.6514 5.94545 11.2791 5.87379 10.8899 5.87379C9.60139 5.87379 8.13869 6.66907 6.9542 7.50932C5.61795 8.45635 2.4888 10.6764 1.9633 12.9189C1.80171 13.606 1.90428 14.3971 2.25977 15.2683C5.79078 12.2192 10.5526 7.90977 11.9971 6.11125Z" fill="#374151"/>
<path d="M18.5321 12.9175C18.2427 11.6824 17.1594 10.4572 16.0268 9.43991C15.6489 9.09988 14.9463 8.65306 14.9463 8.65306C14.9463 8.65306 14.5346 9.38511 14.1384 9.94013C13.5173 10.8099 13.3501 11.0502 13.3501 11.0502C13.3501 11.0502 14.1623 11.6951 14.3182 11.837C15.6981 13.0889 17.2099 14.383 18.2342 15.2668C18.5897 14.3957 18.6909 13.6046 18.5307 12.9175H18.5321Z" fill="#374151"/>
<path d="M11.8551 12.7405C12.2598 13.2098 12.4776 13.9165 12.4776 14.6191C12.4776 14.9985 12.4158 15.3596 12.3048 15.6884C12.8865 16.2518 13.4752 16.6733 13.9796 17.0021C15.0096 17.6752 16.513 18.0911 16.513 18.0911C17.2268 17.6246 17.6329 17.0359 17.8605 16.2195C16.8601 15.42 15.6798 14.3858 14.5585 13.4037C13.9698 12.888 12.7221 11.8047 12.7221 11.8047C12.7221 11.8047 12.6378 11.9311 12.4031 12.1798C12.2472 12.3456 12.0631 12.5297 11.8565 12.7419L11.8551 12.7405Z" fill="#374151"/>
<path d="M11.2973 13.6159C11.0711 13.1423 10.6931 12.8262 10.2744 12.8262C10.2575 12.8262 10.2421 12.8262 10.2266 12.8276C9.57325 12.8655 9.03088 13.6706 9.03088 14.6191C9.03088 14.657 9.03088 14.695 9.03369 14.7329C9.07584 15.6532 9.62664 16.412 10.2744 16.412C10.9221 16.412 11.4434 15.694 11.5109 14.8046C11.5151 14.7427 11.5179 14.6809 11.5179 14.6191C11.5179 14.251 11.4364 13.9053 11.2973 13.6159Z" fill="#374151"/>
<path d="M25.9834 7.04563H28.0475L28.1346 8.56032C28.4423 7.9744 28.8877 7.52055 29.4736 7.19878C30.0595 6.87702 30.7326 6.71543 31.4941 6.71543C33.0749 6.71543 34.1287 7.38847 34.6556 8.73596C34.9928 8.09242 35.472 7.59362 36.0944 7.24234C36.7169 6.89107 37.4447 6.71543 38.2793 6.71543C39.4948 6.71543 40.4376 7.092 41.112 7.84653C41.7851 8.60107 42.1223 9.66473 42.1223 11.0417V17.255H39.905V11.3045C39.905 10.4403 39.7252 9.78556 39.3669 9.33874C39.0086 8.89192 38.4915 8.66851 37.8185 8.66851C37.0134 8.66851 36.3726 8.9692 35.8977 9.56918C35.4214 10.1692 35.1839 10.9743 35.1839 11.9845V17.2536H32.9667V11.3031C32.9667 9.5467 32.2571 8.66851 30.8366 8.66851C30.0314 8.66851 29.3907 8.9692 28.9158 9.56918C28.4395 10.1692 28.202 10.9743 28.202 11.9845V17.2536H25.9848V7.04422L25.9834 7.04563Z" fill="#374151"/>
<path d="M43.1522 12.1616C43.1522 11.1077 43.3714 10.1706 43.8112 9.35138C44.251 8.53221 44.8538 7.88727 45.6224 7.41937C46.391 6.95148 47.272 6.71683 48.2682 6.71683C49.2644 6.71683 50.1594 6.95429 50.914 7.43061C51.6671 7.90694 52.2572 8.57296 52.6816 9.42866C53.1059 10.2844 53.3181 11.2764 53.3181 12.4032V12.8206H45.3695C45.458 13.7142 45.798 14.4167 46.391 14.9282C46.9839 15.4411 47.7708 15.6968 48.7515 15.6968C49.9374 15.6968 50.9983 15.2879 51.9355 14.4673L53.0328 15.8499C52.5059 16.3923 51.854 16.8124 51.0784 17.1117C50.3027 17.411 49.4822 17.5613 48.6194 17.5613C47.5361 17.5613 46.5849 17.3337 45.7657 16.8813C44.9451 16.4274 44.3058 15.7951 43.8449 14.9816C43.3841 14.1694 43.1536 13.2294 43.1536 12.1602L43.1522 12.1616ZM50.255 9.3289C49.7646 8.861 49.1239 8.62635 48.3342 8.62635C47.5445 8.62635 46.8406 8.86381 46.3137 9.34014C45.7868 9.81647 45.472 10.4572 45.3695 11.2609H51.1219C51.0334 10.4417 50.7454 9.79679 50.255 9.3289Z" fill="#374151"/>
<path d="M54.6796 13.2589V7.04562H56.8969V12.9512C56.8969 13.8154 57.0837 14.4772 57.4561 14.938C57.8299 15.3989 58.3596 15.6293 59.0481 15.6293C59.8967 15.6293 60.574 15.3104 61.0784 14.6739C61.5829 14.0374 61.8358 13.1915 61.8358 12.1377V7.04421H64.053V17.2536H62.0114L61.9243 15.6954C61.573 16.2813 61.0939 16.738 60.4855 17.0682C59.8785 17.397 59.1942 17.5628 58.4326 17.5628C57.2608 17.5628 56.3433 17.1862 55.6772 16.4317C55.0112 15.6785 54.6782 14.6205 54.6782 13.2589H54.6796Z" fill="#374151"/>
<path d="M75.6479 17.1454V15.8935C74.9453 16.8897 73.869 17.3871 72.4204 17.3871C71.4986 17.3871 70.6893 17.1749 69.9938 16.7506C69.2982 16.3263 68.7573 15.7333 68.3695 14.9718C67.9817 14.2102 67.7878 13.325 67.7878 12.3147C67.7878 11.1724 68.0365 10.1846 68.5339 9.34998C69.0313 8.51535 69.731 7.8676 70.6303 7.40673C71.5309 6.94586 72.5876 6.71542 73.803 6.71542C74.462 6.71542 75.149 6.77725 75.8671 6.9023C76.5837 7.02735 77.2356 7.2058 77.8215 7.44045V17.0569C77.8215 18.6236 77.3677 19.8306 76.46 20.6793C75.5523 21.5279 74.2498 21.9523 72.5524 21.9523C70.8551 21.9523 69.4711 21.5209 68.3582 20.6568L69.3249 19.0325C70.3057 19.735 71.3665 20.0863 72.5089 20.0863C74.6025 20.0863 75.6493 19.1055 75.6493 17.144L75.6479 17.1454ZM75.6043 12.6V8.88911C74.9748 8.72752 74.3889 8.64743 73.8479 8.64743C72.648 8.64743 71.715 8.96638 71.049 9.60289C70.383 10.2394 70.05 11.1218 70.05 12.2487C70.05 13.2294 70.3057 14.0163 70.8185 14.6092C71.3314 15.2022 72.0115 15.4987 72.8601 15.4987C73.7088 15.4987 74.3425 15.2275 74.847 14.6865C75.3514 14.1456 75.6043 13.45 75.6043 12.6Z" fill="#374151"/>
<path d="M79.3137 13.2589V7.04562H81.531V12.9512C81.531 13.8154 81.7179 14.4772 82.0902 14.938C82.464 15.3989 82.9937 15.6293 83.6822 15.6293C84.5309 15.6293 85.2081 15.3104 85.7126 14.6739C86.217 14.0374 86.4699 13.1915 86.4699 12.1377V7.04421H88.6871V17.2536H86.6455L86.5584 15.6954C86.2071 16.2813 85.728 16.738 85.1196 17.0682C84.5126 17.397 83.8283 17.5628 83.0668 17.5628C81.8949 17.5628 80.9774 17.1862 80.3114 16.4317C79.6454 15.6785 79.3123 14.6205 79.3123 13.2589H79.3137Z" fill="#374151"/>
<path d="M90.2257 7.04562H92.2898L92.3994 8.71487C92.7507 8.12894 93.2073 7.6751 93.7722 7.35333C94.3356 7.03157 94.9609 6.86998 95.6494 6.86998C96.0302 6.86998 96.4109 6.92899 96.7917 7.04562L96.3744 9.06614C96.0667 8.96357 95.7449 8.91299 95.4077 8.91299C94.559 8.91299 93.8523 9.1912 93.2888 9.74761C92.7254 10.304 92.4429 11.0361 92.4429 11.9438V17.2564H90.2257V7.04702V7.04562Z" fill="#374151"/>
<path d="M97.9551 13.2589V7.04562H100.172V12.9512C100.172 13.8154 100.359 14.4772 100.732 14.938C101.105 15.3989 101.635 15.6293 102.324 15.6293C103.172 15.6293 103.85 15.3104 104.354 14.6739C104.858 14.0374 105.111 13.1915 105.111 12.1377V7.04421H107.329V17.2536H105.287L105.2 15.6954C104.849 16.2813 104.369 16.738 103.761 17.0682C103.154 17.397 102.47 17.5628 101.708 17.5628C100.536 17.5628 99.6188 17.1862 98.9527 16.4317C98.2867 15.6785 97.9537 14.6205 97.9537 13.2589H97.9551Z" fill="#374151"/>
</svg>
