<svg width="28" height="28" viewBox="0 0 28 28" fill="none" xmlns="http://www.w3.org/2000/svg">
<path d="M5.83333 11.6666C5.83333 13.8326 6.69374 15.9098 8.22529 17.4414C9.75684 18.9729 11.8341 19.8333 14 19.8333M14 19.8333C16.1659 19.8333 18.2432 18.9729 19.7747 17.4414C21.3062 15.9098 22.1667 13.8326 22.1667 11.6666M14 19.8333V24.5M9.33333 24.5H18.6667M10.5 5.83331C10.5 4.90506 10.8687 4.01482 11.5251 3.35844C12.1815 2.70206 13.0717 2.33331 14 2.33331C14.9283 2.33331 15.8185 2.70206 16.4749 3.35844C17.1312 4.01482 17.5 4.90506 17.5 5.83331V11.6666C17.5 12.5949 17.1312 13.4851 16.4749 14.1415C15.8185 14.7979 14.9283 15.1666 14 15.1666C13.0717 15.1666 12.1815 14.7979 11.5251 14.1415C10.8687 13.4851 10.5 12.5949 10.5 11.6666V5.83331Z" stroke="currentColor" stroke-width="2" stroke-linecap="round" stroke-linejoin="round"/>
</svg>
