<svg width="18" height="18" viewBox="0 0 18 18" fill="none" xmlns="http://www.w3.org/2000/svg">
<path d="M11.25 6H11.2575M2.25 12L6 8.25C6.696 7.58025 7.554 7.58025 8.25 8.25L12 12M10.5 10.5L11.25 9.75C11.946 9.08025 12.804 9.08025 13.5 9.75L15.75 12M2.25 4.5C2.25 3.90326 2.48705 3.33097 2.90901 2.90901C3.33097 2.48705 3.90326 2.25 4.5 2.25H13.5C14.0967 2.25 14.669 2.48705 15.091 2.90901C15.5129 3.33097 15.75 3.90326 15.75 4.5V13.5C15.75 14.0967 15.5129 14.669 15.091 15.091C14.669 15.5129 14.0967 15.75 13.5 15.75H4.5C3.90326 15.75 3.33097 15.5129 2.90901 15.091C2.48705 14.669 2.25 14.0967 2.25 13.5V4.5Z" stroke="currentColor" stroke-width="1.5" stroke-linecap="round" stroke-linejoin="round"/>
</svg>
